# xmcd
#
# Track frame offsets: 
#        150
#        15988
#        29762
#        48502
#        63671
#        89594
#        117638
#        130515
#        155064
#        175906
#        223811
#        243586
#        258518
#
# Disc length: 3709 seconds
#
# Revision: 0
# Processed by: cddbd v1.5.2PL0 Copyright (c) Steve Scherf et al.
# Submitted via: ExactAudioCopy v0.99pb5
#
DISCID=c20e7b0d
DTITLE=Ró¿ni wykonawcy - Kraków Czuje Bluesa
DYEAR=2013
DGENRE=Blues
TTITLE0=01.Trio - These Boots Are Made For Walkin
TTITLE1=02.Trio - What You Want Me To Do
TTITLE2=03.The Cooks - Hug You Squeeze You
TTITLE3=04.The Bluesmobile Band - Zimny Zimny Pot
TTITLE4=05.The Bluesmobile Band - Trick
TTITLE5=06.Krakowska Grupa Bluesowa - Karolina Z Ludwinowa
TTITLE6=07.The Willows Revival Singers - By an By
TTITLE7=08.The Willows Revival Singers - St.James Infirmary Blues
TTITLE8=09.Krecia Robota - Bluesman
TTITLE9=10.Krecia Robota - Gdybym By³ Wichrem
TTITLE10=11.Krecia Robota - Shake Rattle And Roll
TTITLE11=12.K.Dobrowolski i Krecia Robota - Route 66
TTITLE12=13.K.Dobrowolski i Krecia Robota - I Need You Baby
EXTD=
EXTT0=
EXTT1=
EXTT2=
EXTT3=
EXTT4=
EXTT5=
EXTT6=
EXTT7=
EXTT8=
EXTT9=
EXTT10=
EXTT11=
EXTT12=
PLAYORDER=
